<?xml version="1.0" encoding="utf-8"?>
<!-- Generator: Adobe Illustrator 27.3.1, SVG Export Plug-In . SVG Version: 6.00 Build 0)  -->
<svg version="1.1" id="레이어_1" xmlns="http://www.w3.org/2000/svg" xmlns:xlink="http://www.w3.org/1999/xlink" x="0px"
	 y="0px" viewBox="0 0 100 52" style="enable-background:new 0 0 100 52;" xml:space="preserve">
<style type="text/css">
	.st0{fill:#231815;stroke:#231815;stroke-width:0.25;stroke-miterlimit:10;}
	.st1{fill:#F06449;}
</style>
<g>
	<path class="st0" d="M31.1,46.1l-1.9-2.5l-1.9,2.6L27,46l2-2.8v-1.8h-1.8V41h3.9v0.4h-1.7v1.8l2,2.7L31.1,46.1z M32.8,40.4v2.8h1.3
		v0.4h-1.3v4.3L32.5,48c-0.1,0-0.1,0-0.1-0.1v-7.5H32.8z"/>
	<path class="st0" d="M40,44.5v-0.4h3.2v-0.9H41v-2.5h4.9v2.5h-2.2v0.9h3.2v0.4H40z M44.4,47.9h-2c-1.2,0-1.6-0.7-1.6-1.3
		s0.4-1.3,1.6-1.3h2c1.2,0,1.6,0.7,1.6,1.3S45.6,47.9,44.4,47.9z M44.5,45.6h-2.1c-0.7,0-1.1,0.4-1.1,1s0.4,1,1.1,1h2.1
		c0.7,0,1.1-0.4,1.1-1S45.2,45.6,44.5,45.6z M45.4,41.1h-4v1.7h4V41.1z"/>
	<path class="st0" d="M53.3,44.3v-3.5h3.5v3.5H53.3z M56.4,41.2h-2.7v2.8h2.7V41.2z M59,48l-2.5-1.8L54.1,48l-0.3-0.3l2.5-1.8V45
		h0.4v0.9l2.5,1.8L59,48z M58.8,40.4v1.8h1.2v0.4h-1.2v2.7l-0.3,0.1c-0.1,0-0.1,0-0.1-0.1v-5H58.8z"/>
	<path class="st0" d="M70.1,44.2l-1.8-1.7l-1.8,1.8L66.1,44l1.9-1.9v-1h-1.7v-0.4h3.8v0.4h-1.7v1l1.9,1.8L70.1,44.2z M67.5,47.9
		v-3.1h0.4v1.1h3.7v-1.1h0.4v3.1H67.5z M71.7,46.3h-3.7v1.2h3.7V46.3z M72.1,40.4v3.9l-0.3,0.1c-0.1,0-0.1,0-0.1-0.1v-3.9H72.1z"/>
</g>
<g>
	<path class="st1" d="M47.4,20.4c-1-0.6-3.1-0.7-3.2-0.7H32.5c-1.6,0-3.6,0-5,0.7c-1.3,0.7-1.1,2.7-1.1,4v1.2c0,0.4,0,0.9,0,1.2v0
		c0,2.8-0.1,4.4,0.3,7.1c0.2,1.4,1.5,1.8,2.6,1.8c1.2,0.1,2.5,0,3.7,0c1.8,0.1,3.6,0.1,5.3,0c0.7,0,1.5,0,2.2,0h1c1,0,2-0.1,3-0.1
		c0.9,0,2.1,0.1,2.9-0.3c0.7-0.4,0.9-1.1,1-1.8c0.2-1.1,0.2-2.2,0.2-3.3v-6.6C48.6,23.8,48.6,21.2,47.4,20.4z M43.2,31.3
		c-0.4,0.2-0.9,0.1-1.3,0.1c-1.1,0.1-1.8,0-3,0h-4.3c-0.3,0-0.6,0-0.9,0c-0.8,0-2.4,0.3-2.6-0.9c-0.1-0.8-0.1-1.7-0.1-2.5
		c0-0.2,0-0.5,0-0.7v-1.4c0-0.3,0.1-1,1-1.1c0.8-0.1,2.3-0.2,2.4-0.2h7c0.7,0,1.7,0,2.1,0.5c0.3,0.5,0.1,1.1,0.2,1.7
		c0,0.1,0,0.3,0,0.5v0.1v0.1v1.2C43.7,29.4,43.8,31,43.2,31.3z"/>
	<path class="st1" d="M71.9,20.4c-1-0.6-3.1-0.7-3.2-0.7H57.1c-1.6,0-3.6,0-5,0.7c-1.3,0.7-1.1,2.7-1.1,4v1.2c0,0.4,0,0.9,0,1.2v0
		c0,2.8-0.1,4.4,0.3,7.1c0.2,1.4,1.5,1.8,2.6,1.8c1.2,0.1,2.5,0,3.7,0c1.8,0.1,3.6,0.1,5.3,0c0.7,0,1.5,0,2.2,0h1c1,0,2-0.1,3-0.1
		c0.9,0,2.1,0.1,2.9-0.3c0.7-0.4,0.9-1.1,1-1.8c0.2-1.1,0.2-2.2,0.2-3.3v-6.6C73.1,23.8,73.1,21.2,71.9,20.4z M67.7,31.3
		c-0.4,0.2-0.9,0.1-1.3,0.1c-1.1,0.1-1.8,0-3,0h-4.3c-0.3,0-0.6,0-0.9,0c-0.8,0-2.4,0.3-2.6-0.9c-0.1-0.8-0.1-1.7-0.1-2.5
		c0-0.2,0-0.5,0-0.7v-1.4c0-0.3,0.1-1,1-1.1c0.8-0.1,2.3-0.2,2.4-0.2h7c0.7,0,1.7,0,2.1,0.5c0.3,0.5,0.1,1.1,0.2,1.7
		c0,0.1,0,0.3,0,0.5v0.1v0.1v1.2C68.2,29.4,68.4,31,67.7,31.3z"/>
	<path class="st1" d="M24.5,20.2L15.1,3.9c-0.4-0.6-1-1-1.8-1c-0.7,0-1.4,0.4-1.8,1L2.1,20.2c-0.2,0.4-0.3,0.8-0.3,1.2
		c0,0.1,0,0.2,0,0.3c0.2,2.2,3.3,1.8,3.3,1.8h5.6v2.3c0,0.9,0.2,1.4-0.5,2.1c-1.6,1.6-3.5,3.4-5.3,4.6c-1.4,0.9-3.2,2.2-2,4.1
		C4.8,39,7.6,36.1,9.2,35c1.3-1.1,4.4-3.6,4.5-3.6c1.9,1.8,3.8,3.5,6.1,4.9c1.2,0.7,3.3,1.2,4.1-0.2c0.7-1.4-0.7-2.7-1.6-3.7
		c-1.8-1.6-3.7-2.7-5.1-4.3c-0.3-0.4-0.8-0.7-0.9-1.2c-0.1-0.4,0-1,0-1.4l0-2.1l5.3-0.1c1.5,0.1,3.1,0.1,3.3-1.7
		C24.9,21.2,24.8,20.7,24.5,20.2z M7.3,19.3l6-10.3l6,10.3L7.3,19.3z"/>
	<path class="st1" d="M98,20.2L88.6,3.9c-0.4-0.6-1-1-1.8-1s-1.4,0.4-1.8,1l-9.4,16.3c-0.4,0.6-0.4,1.4,0,2c0.6,1.6,3.2,1.3,3.2,1.3
		h5.6v2.3c0,0.9,0.2,1.4-0.5,2.1c-1.6,1.6-3.5,3.4-5.3,4.6c-1.4,0.9-3.2,2.2-2,4.1c1.8,2.5,4.7-0.4,6.2-1.6c1.3-1.1,4.4-3.6,4.5-3.6
		c1.9,1.8,3.8,3.5,6.1,4.9c1.2,0.7,3.3,1.2,4.1-0.2c0.7-1.4-0.7-2.7-1.6-3.7c-1.8-1.6-3.7-2.7-5.1-4.3c-0.3-0.4-0.8-0.7-0.9-1.2
		c-0.1-0.4,0-1,0-1.4l0-2.1l5.3-0.1c1.6,0.1,3.3,0.1,3.3-2.1C98.3,20.9,98.2,20.5,98,20.2z M80.8,19.3l6-10.3l6,10.3L80.8,19.3z"/>
</g>
</svg>
