<?xml version="1.0" encoding="UTF-8"?>
<svg id="_레이어_1" data-name="레이어 1" xmlns="http://www.w3.org/2000/svg" viewBox="0 0 400 209.89">
  <defs>
    <style>
      .cls-1 {
        fill: #f06449;
      }

      .cls-2 {
        fill: #36382e;
      }
    </style>
  </defs>
  <g>
    <path class="cls-2" d="m132.31,181.04l-6.55-8.92-6.77,9.29-1.23-.86,7.23-9.9v-6.28h-6.21v-1.35h13.81v1.35h-6.06v6.28l7.01,9.53-1.23.86Zm6.24-20.18v10h4.58v1.35h-4.58v15.04l-1.11.37c-.25.09-.43-.03-.43-.28v-26.48h1.54Z"/>
    <path class="cls-2" d="m163.98,175.28v-1.35h11.29v-3.29h-7.84v-8.86h17.23v8.86h-7.84v3.29h11.29v1.35h-24.12Zm15.66,12.06h-7.2c-4.15,0-5.63-2.52-5.63-4.74s1.48-4.74,5.63-4.74h7.2c4.15,0,5.63,2.52,5.63,4.74s-1.48,4.74-5.63,4.74Zm.06-8.12h-7.32c-2.55,0-4,1.29-4,3.38s1.45,3.38,4,3.38h7.32c2.55,0,4-1.29,4-3.38s-1.45-3.38-4-3.38Zm3.41-16.09h-14.15v6.15h14.15v-6.15Z"/>
    <path class="cls-2" d="m211.14,174.64v-12.55h12.49v12.55h-12.49Zm10.95-11.2h-9.41v9.84h9.41v-9.84Zm9.13,24.18l-8.77-6.24-8.77,6.24-.92-1.17,8.92-6.34v-3.2h1.54v3.2l8.92,6.34-.92,1.17Zm-.61-26.76v6.46h4.4v1.35h-4.4v9.66l-1.11.37c-.25.09-.43-.03-.43-.28v-17.56h1.54Z"/>
    <path class="cls-2" d="m270.3,174.3l-6.28-6.03-6.52,6.34-1.11-1.02,6.86-6.64v-3.51h-6.03v-1.35h13.44v1.35h-5.87v3.51l6.61,6.34-1.11,1.01Zm-9.1,13.01v-10.86h1.54v3.81h13.23v-3.81h1.54v10.86h-16.3Zm14.76-5.69h-13.23v4.34h13.23v-4.34Zm1.54-20.76v13.78l-1.11.37c-.25.09-.43-.03-.43-.28v-13.87h1.54Z"/>
  </g>
  <g>
    <path class="cls-1" d="m189.94,83.08c-3.4-2.01-11.06-2.39-11.44-2.39h-40.99c-5.66,0-12.57.13-17.73,2.64-4.65,2.51-3.9,9.55-3.9,14.08v4.4c0,1.51-.13,3.02-.13,4.4v.13c0,9.81-.5,15.46,1.13,25.14.75,4.78,5.15,6.29,9.3,6.54,4.4.25,8.68-.13,12.95.13,6.29.25,12.57.25,18.86,0,2.64-.13,5.28,0,7.92,0h3.52c3.52,0,7.17-.38,10.69-.38,3.02.13,7.42.38,10.18-1.01,2.51-1.26,3.02-3.9,3.39-6.29.63-4.02.63-7.8.63-11.69v-23.39c0-.38-.13-9.81-4.4-12.32Zm-14.71,38.47c-1.51.63-3.02.25-4.65.5-4.02.38-6.29,0-10.56,0h-15.34c-1,0-2.01-.13-3.14,0-2.89.13-8.55,1.01-9.18-3.02-.38-2.89-.5-5.91-.38-8.8.13-.88.13-1.63.13-2.39v-4.9c0-1.01.38-3.52,3.65-3.9,2.77-.38,8.3-.63,8.42-.63h24.77c2.39,0,6.16-.13,7.29,1.63,1.01,1.76.5,3.9.63,6.04,0,.5-.13,1.13,0,1.63v5.15c0,2.01.63,7.67-1.63,8.67Z"/>
    <path class="cls-1" d="m276.7,83.08c-3.4-2.01-11.06-2.39-11.44-2.39h-40.99c-5.66,0-12.57.13-17.73,2.64-4.65,2.51-3.9,9.55-3.9,14.08v4.4c0,1.51-.13,3.02-.13,4.4v.13c0,9.81-.5,15.46,1.13,25.14.75,4.78,5.15,6.29,9.3,6.54,4.4.25,8.68-.13,12.95.13,6.29.25,12.57.25,18.86,0,2.64-.13,5.28,0,7.92,0h3.52c3.52,0,7.17-.38,10.69-.38,3.02.13,7.42.38,10.18-1.01,2.51-1.26,3.02-3.9,3.39-6.29.63-4.02.63-7.8.63-11.69v-23.39c0-.38-.13-9.81-4.4-12.32Zm-14.71,38.47c-1.51.63-3.02.25-4.65.5-4.02.38-6.29,0-10.56,0h-15.34c-1,0-2.01-.13-3.14,0-2.89.13-8.55,1.01-9.18-3.02-.38-2.89-.5-5.91-.38-8.8.13-.88.13-1.63.13-2.39v-4.9c0-1.01.38-3.52,3.65-3.9,2.77-.38,8.3-.63,8.42-.63h24.77c2.39,0,6.16-.13,7.29,1.63,1.01,1.76.5,3.9.63,6.04,0,.5-.13,1.13,0,1.63v5.15c0,2.01.63,7.67-1.63,8.67Z"/>
    <path class="cls-1" d="m109.12,82.05l-33.36-57.55c-1.3-2.24-3.71-3.63-6.31-3.63s-5.01,1.38-6.31,3.63l-33.36,57.55c-.76,1.32-1.06,2.78-.95,4.19,0,.32.02.65.05,1,.63,7.67,11.82,6.54,11.82,6.54h19.87v8.17c0,3.14.63,5.03-1.63,7.29-5.66,5.66-12.32,11.94-18.86,16.34-4.9,3.27-11.44,7.92-7.17,14.59,6.29,8.67,16.47-1.51,21.88-5.66,4.78-3.77,15.59-12.82,15.97-12.57,6.79,6.41,13.45,12.32,21.5,17.48,4.15,2.64,11.57,4.4,14.33-.88,2.51-4.9-2.52-9.68-5.66-12.95-6.41-5.53-13.2-9.55-18.11-15.21-1.13-1.38-2.77-2.39-3.27-4.27-.25-1.38,0-3.4,0-4.78l-.13-7.29,18.86-.25c5.18.35,10.98.35,11.54-6.12.52-1.82.33-3.84-.7-5.61Zm-60.84-2.89l21.17-36.52,21.06,36.34-42.23.19Z"/>
    <path class="cls-1" d="m369.18,82.05l-33.41-57.55c-1.3-2.24-3.71-3.63-6.32-3.63s-5.01,1.38-6.32,3.63l-33.41,57.55c-1.29,2.23-1.26,4.86-.14,6.98,2.11,5.66,11.4,4.74,11.4,4.74h19.87v8.17c0,3.14.63,5.03-1.63,7.29-5.66,5.66-12.32,11.94-18.86,16.34-4.9,3.27-11.44,7.92-7.17,14.59,6.29,8.67,16.47-1.51,21.88-5.66,4.78-3.77,15.59-12.82,15.97-12.57,6.79,6.41,13.45,12.32,21.5,17.48,4.15,2.64,11.57,4.4,14.33-.88,2.51-4.9-2.52-9.68-5.66-12.95-6.41-5.53-13.2-9.55-18.11-15.21-1.13-1.38-2.77-2.39-3.27-4.27-.25-1.38,0-3.4,0-4.78l-.13-7.29,18.86-.25c5.53.37,11.76.35,11.57-7.5.12-1.42-.18-2.89-.95-4.22Zm-60.94-2.89l21.21-36.52,21.1,36.34-42.3.19Z"/>
  </g>
</svg>